<svg width="99" height="32" viewBox="0 0 99 32" fill="none" xmlns="http://www.w3.org/2000/svg">
<path d="M0.0737813 4.296V0.48H6.72178V18H2.44978V4.296H0.0737813ZM9.67322 5.424C9.73722 3.712 10.2972 2.392 11.3532 1.464C12.4092 0.535999 13.8412 0.0719991 15.6492 0.0719991C16.8492 0.0719991 17.8732 0.279999 18.7212 0.696C19.5852 1.112 20.2332 1.68 20.6652 2.4C21.1132 3.12 21.3372 3.928 21.3372 4.824C21.3372 5.88 21.0732 6.744 20.5452 7.416C20.0172 8.072 19.4012 8.52 18.6972 8.76V8.856C19.6092 9.16 20.3292 9.664 20.8572 10.368C21.3852 11.072 21.6492 11.976 21.6492 13.08C21.6492 14.072 21.4172 14.952 20.9532 15.72C20.5052 16.472 19.8412 17.064 18.9612 17.496C18.0972 17.928 17.0652 18.144 15.8652 18.144C13.9452 18.144 12.4092 17.672 11.2572 16.728C10.1212 15.784 9.52122 14.36 9.45722 12.456H13.4412C13.4572 13.16 13.6572 13.72 14.0412 14.136C14.4252 14.536 14.9852 14.736 15.7212 14.736C16.3452 14.736 16.8252 14.56 17.1612 14.208C17.5132 13.84 17.6892 13.36 17.6892 12.768C17.6892 12 17.4412 11.448 16.9452 11.112C16.4652 10.76 15.6892 10.584 14.6172 10.584H13.8492V7.248H14.6172C15.4332 7.248 16.0892 7.112 16.5852 6.84C17.0972 6.552 17.3532 6.048 17.3532 5.328C17.3532 4.752 17.1932 4.304 16.8732 3.984C16.5532 3.664 16.1132 3.504 15.5532 3.504C14.9452 3.504 14.4892 3.688 14.1852 4.056C13.8972 4.424 13.7292 4.88 13.6812 5.424H9.67322ZM36.3965 4.056H28.9085V7.368C29.2285 7.016 29.6765 6.728 30.2525 6.504C30.8285 6.28 31.4525 6.168 32.1245 6.168C33.3245 6.168 34.3165 6.44 35.1005 6.984C35.9005 7.528 36.4845 8.232 36.8525 9.096C37.2205 9.96 37.4045 10.896 37.4045 11.904C37.4045 13.776 36.8765 15.264 35.8205 16.368C34.7645 17.456 33.2765 18 31.3565 18C30.0765 18 28.9645 17.784 28.0205 17.352C27.0765 16.904 26.3485 16.288 25.8365 15.504C25.3245 14.72 25.0445 13.816 24.9965 12.792H29.0045C29.1005 13.288 29.3325 13.704 29.7005 14.04C30.0685 14.36 30.5725 14.52 31.2125 14.52C31.9645 14.52 32.5245 14.28 32.8925 13.8C33.2605 13.32 33.4445 12.68 33.4445 11.88C33.4445 11.096 33.2525 10.496 32.8685 10.08C32.4845 9.664 31.9245 9.456 31.1885 9.456C30.6445 9.456 30.1965 9.592 29.8445 9.864C29.4925 10.12 29.2605 10.464 29.1485 10.896H25.1885V0.456H36.3965V4.056ZM39.6698 9C39.6698 6.248 40.1978 4.08 41.2538 2.496C42.3258 0.911999 44.0458 0.119998 46.4138 0.119998C48.7818 0.119998 50.4938 0.911999 51.5498 2.496C52.6218 4.08 53.1578 6.248 53.1578 9C53.1578 11.784 52.6218 13.968 51.5498 15.552C50.4938 17.136 48.7818 17.928 46.4138 17.928C44.0458 17.928 42.3258 17.136 41.2538 15.552C40.1978 13.968 39.6698 11.784 39.6698 9ZM49.1258 9C49.1258 7.384 48.9498 6.144 48.5978 5.28C48.2458 4.4 47.5178 3.96 46.4138 3.96C45.3098 3.96 44.5818 4.4 44.2298 5.28C43.8778 6.144 43.7018 7.384 43.7018 9C43.7018 10.088 43.7658 10.992 43.8938 11.712C44.0218 12.416 44.2778 12.992 44.6618 13.44C45.0618 13.872 45.6458 14.088 46.4138 14.088C47.1818 14.088 47.7578 13.872 48.1418 13.44C48.5418 12.992 48.8058 12.416 48.9338 11.712C49.0618 10.992 49.1258 10.088 49.1258 9ZM69.004 18L64.924 12.384V18H60.82V0.24H64.924V10.056L68.98 4.608H74.044L68.476 11.328L74.092 18H69.004ZM92.744 4.464C94.408 4.464 95.728 4.968 96.704 5.976C97.696 6.984 98.192 8.384 98.192 10.176V18H94.112V10.728C94.112 9.864 93.88 9.2 93.416 8.736C92.968 8.256 92.344 8.016 91.544 8.016C90.744 8.016 90.112 8.256 89.648 8.736C89.2 9.2 88.976 9.864 88.976 10.728V18H84.896V10.728C84.896 9.864 84.664 9.2 84.2 8.736C83.752 8.256 83.128 8.016 82.328 8.016C81.528 8.016 80.896 8.256 80.432 8.736C79.984 9.2 79.76 9.864 79.76 10.728V18H75.656V4.608H79.76V6.288C80.176 5.728 80.72 5.288 81.392 4.968C82.064 4.632 82.824 4.464 83.672 4.464C84.68 4.464 85.576 4.68 86.36 5.112C87.16 5.544 87.784 6.16 88.232 6.96C88.696 6.224 89.328 5.624 90.128 5.16C90.928 4.696 91.8 4.464 92.744 4.464ZM33.1838 26.68C33.6718 26.784 34.0638 27.028 34.3598 27.412C34.6558 27.788 34.8038 28.22 34.8038 28.708C34.8038 29.412 34.5558 29.972 34.0598 30.388C33.5718 30.796 32.8878 31 32.0078 31H28.0838V22.576H31.8758C32.7318 22.576 33.3998 22.772 33.8798 23.164C34.3678 23.556 34.6118 24.088 34.6118 24.76C34.6118 25.256 34.4798 25.668 34.2158 25.996C33.9598 26.324 33.6158 26.552 33.1838 26.68ZM30.1358 25.984H31.4798C31.8158 25.984 32.0718 25.912 32.2478 25.768C32.4318 25.616 32.5238 25.396 32.5238 25.108C32.5238 24.82 32.4318 24.6 32.2478 24.448C32.0718 24.296 31.8158 24.22 31.4798 24.22H30.1358V25.984ZM31.6478 29.344C31.9918 29.344 32.2558 29.268 32.4398 29.116C32.6318 28.956 32.7278 28.728 32.7278 28.432C32.7278 28.136 32.6278 27.904 32.4278 27.736C32.2358 27.568 31.9678 27.484 31.6238 27.484H30.1358V29.344H31.6478ZM43.218 22.576L40.302 28.216V31H38.25V28.216L35.334 22.576H37.662L39.294 26.104L40.914 22.576H43.218ZM46.2397 26.776C46.2397 25.944 46.4198 25.204 46.7798 24.556C47.1398 23.9 47.6398 23.392 48.2798 23.032C48.9278 22.664 49.6598 22.48 50.4758 22.48C51.4758 22.48 52.3318 22.744 53.0438 23.272C53.7558 23.8 54.2318 24.52 54.4718 25.432H52.2158C52.0478 25.08 51.8078 24.812 51.4958 24.628C51.1918 24.444 50.8438 24.352 50.4518 24.352C49.8198 24.352 49.3078 24.572 48.9158 25.012C48.5238 25.452 48.3278 26.04 48.3278 26.776C48.3278 27.512 48.5238 28.1 48.9158 28.54C49.3078 28.98 49.8198 29.2 50.4518 29.2C50.8438 29.2 51.1918 29.108 51.4958 28.924C51.8078 28.74 52.0478 28.472 52.2158 28.12H54.4718C54.2318 29.032 53.7558 29.752 53.0438 30.28C52.3318 30.8 51.4758 31.06 50.4758 31.06C49.6598 31.06 48.9278 30.88 48.2798 30.52C47.6398 30.152 47.1398 29.644 46.7798 28.996C46.4198 28.348 46.2397 27.608 46.2397 26.776ZM60.9724 29.512H57.8284L57.3244 31H55.1764L58.2244 22.576H60.6004L63.6484 31H61.4764L60.9724 29.512ZM60.4444 27.928L59.4004 24.844L58.3684 27.928H60.4444ZM68.872 31L67.12 27.82H66.628V31H64.576V22.576H68.02C68.684 22.576 69.248 22.692 69.712 22.924C70.184 23.156 70.536 23.476 70.768 23.884C71 24.284 71.116 24.732 71.116 25.228C71.116 25.788 70.956 26.288 70.636 26.728C70.324 27.168 69.86 27.48 69.244 27.664L71.188 31H68.872ZM66.628 26.368H67.9C68.276 26.368 68.556 26.276 68.74 26.092C68.932 25.908 69.028 25.648 69.028 25.312C69.028 24.992 68.932 24.74 68.74 24.556C68.556 24.372 68.276 24.28 67.9 24.28H66.628V26.368Z" fill="black"/>
</svg>
