<svg width="27" height="32" viewBox="0 0 27 32" fill="none" xmlns="http://www.w3.org/2000/svg">
<path d="M9.13628 4.296V0.48H15.7843V18H11.5123V4.296H9.13628ZM3.25352 22.576C4.14152 22.576 4.91752 22.752 5.58152 23.104C6.24552 23.456 6.75752 23.952 7.11752 24.592C7.48552 25.224 7.66952 25.956 7.66952 26.788C7.66952 27.612 7.48552 28.344 7.11752 28.984C6.75752 29.624 6.24152 30.12 5.56952 30.472C4.90552 30.824 4.13352 31 3.25352 31H0.0975157V22.576H3.25352ZM3.12152 29.224C3.89752 29.224 4.50152 29.012 4.93352 28.588C5.36552 28.164 5.58152 27.564 5.58152 26.788C5.58152 26.012 5.36552 25.408 4.93352 24.976C4.50152 24.544 3.89752 24.328 3.12152 24.328H2.14952V29.224H3.12152ZM12.8003 31.084C12.0083 31.084 11.2803 30.9 10.6163 30.532C9.96027 30.164 9.43627 29.652 9.04427 28.996C8.66027 28.332 8.46827 27.588 8.46827 26.764C8.46827 25.94 8.66027 25.2 9.04427 24.544C9.43627 23.888 9.96027 23.376 10.6163 23.008C11.2803 22.64 12.0083 22.456 12.8003 22.456C13.5923 22.456 14.3163 22.64 14.9723 23.008C15.6363 23.376 16.1563 23.888 16.5323 24.544C16.9163 25.2 17.1083 25.94 17.1083 26.764C17.1083 27.588 16.9163 28.332 16.5323 28.996C16.1483 29.652 15.6283 30.164 14.9723 30.532C14.3163 30.9 13.5923 31.084 12.8003 31.084ZM12.8003 29.212C13.4723 29.212 14.0083 28.988 14.4083 28.54C14.8163 28.092 15.0203 27.5 15.0203 26.764C15.0203 26.02 14.8163 25.428 14.4083 24.988C14.0083 24.54 13.4723 24.316 12.8003 24.316C12.1203 24.316 11.5763 24.536 11.1683 24.976C10.7683 25.416 10.5683 26.012 10.5683 26.764C10.5683 27.508 10.7683 28.104 11.1683 28.552C11.5763 28.992 12.1203 29.212 12.8003 29.212ZM23.8419 25.24C23.6899 24.96 23.4699 24.748 23.1819 24.604C22.9019 24.452 22.5699 24.376 22.1859 24.376C21.5219 24.376 20.9899 24.596 20.5899 25.036C20.1899 25.468 19.9899 26.048 19.9899 26.776C19.9899 27.552 20.1979 28.16 20.6139 28.6C21.0379 29.032 21.6179 29.248 22.3539 29.248C22.8579 29.248 23.2819 29.12 23.6259 28.864C23.9779 28.608 24.2339 28.24 24.3939 27.76H21.7899V26.248H26.2539V28.156C26.1019 28.668 25.8419 29.144 25.4739 29.584C25.1139 30.024 24.6539 30.38 24.0939 30.652C23.5339 30.924 22.9019 31.06 22.1979 31.06C21.3659 31.06 20.6219 30.88 19.9659 30.52C19.3179 30.152 18.8099 29.644 18.4419 28.996C18.0819 28.348 17.9019 27.608 17.9019 26.776C17.9019 25.944 18.0819 25.204 18.4419 24.556C18.8099 23.9 19.3179 23.392 19.9659 23.032C20.6139 22.664 21.3539 22.48 22.1859 22.48C23.1939 22.48 24.0419 22.724 24.7299 23.212C25.4259 23.7 25.8859 24.376 26.1099 25.24H23.8419Z" fill="black"/>
</svg>
