<svg width="76" height="32" viewBox="0 0 76 32" fill="none" xmlns="http://www.w3.org/2000/svg">
<path d="M0.562719 14.88V11.568L8.14672 0.719999H12.7307V11.328H14.6987V14.88H12.7307V18H8.62672V14.88H0.562719ZM8.91472 5.232L4.88272 11.328H8.91472V5.232ZM16.7089 9C16.7089 6.248 17.2369 4.08 18.2929 2.496C19.3649 0.911999 21.0849 0.119998 23.4529 0.119998C25.8209 0.119998 27.5329 0.911999 28.5889 2.496C29.6609 4.08 30.1969 6.248 30.1969 9C30.1969 11.784 29.6609 13.968 28.5889 15.552C27.5329 17.136 25.8209 17.928 23.4529 17.928C21.0849 17.928 19.3649 17.136 18.2929 15.552C17.2369 13.968 16.7089 11.784 16.7089 9ZM26.1649 9C26.1649 7.384 25.9889 6.144 25.6369 5.28C25.2849 4.4 24.5569 3.96 23.4529 3.96C22.3489 3.96 21.6209 4.4 21.2689 5.28C20.9169 6.144 20.7409 7.384 20.7409 9C20.7409 10.088 20.8049 10.992 20.9329 11.712C21.0609 12.416 21.3169 12.992 21.7009 13.44C22.1009 13.872 22.6849 14.088 23.4529 14.088C24.2209 14.088 24.7969 13.872 25.1809 13.44C25.5809 12.992 25.8449 12.416 25.9729 11.712C26.1009 10.992 26.1649 10.088 26.1649 9ZM46.0431 18L41.9631 12.384V18H37.8591V0.24H41.9631V10.056L46.0191 4.608H51.0831L45.5151 11.328L51.1311 18H46.0431ZM69.783 4.464C71.447 4.464 72.767 4.968 73.743 5.976C74.735 6.984 75.231 8.384 75.231 10.176V18H71.151V10.728C71.151 9.864 70.919 9.2 70.455 8.736C70.007 8.256 69.383 8.016 68.583 8.016C67.783 8.016 67.151 8.256 66.687 8.736C66.239 9.2 66.015 9.864 66.015 10.728V18H61.935V10.728C61.935 9.864 61.703 9.2 61.239 8.736C60.791 8.256 60.167 8.016 59.367 8.016C58.567 8.016 57.935 8.256 57.471 8.736C57.023 9.2 56.799 9.864 56.799 10.728V18H52.695V4.608H56.799V6.288C57.215 5.728 57.759 5.288 58.431 4.968C59.103 4.632 59.863 4.464 60.711 4.464C61.719 4.464 62.615 4.68 63.399 5.112C64.199 5.544 64.823 6.16 65.271 6.96C65.735 6.224 66.367 5.624 67.167 5.16C67.967 4.696 68.839 4.464 69.783 4.464ZM15.9682 31.084C15.1762 31.084 14.4482 30.9 13.7842 30.532C13.1282 30.164 12.6042 29.652 12.2122 28.996C11.8282 28.332 11.6362 27.588 11.6362 26.764C11.6362 25.94 11.8282 25.2 12.2122 24.544C12.6042 23.888 13.1282 23.376 13.7842 23.008C14.4482 22.64 15.1762 22.456 15.9682 22.456C16.7602 22.456 17.4842 22.64 18.1402 23.008C18.8042 23.376 19.3242 23.888 19.7002 24.544C20.0842 25.2 20.2762 25.94 20.2762 26.764C20.2762 27.588 20.0842 28.332 19.7002 28.996C19.3162 29.652 18.7962 30.164 18.1402 30.532C17.4842 30.9 16.7602 31.084 15.9682 31.084ZM15.9682 29.212C16.6402 29.212 17.1762 28.988 17.5762 28.54C17.9842 28.092 18.1882 27.5 18.1882 26.764C18.1882 26.02 17.9842 25.428 17.5762 24.988C17.1762 24.54 16.6402 24.316 15.9682 24.316C15.2882 24.316 14.7442 24.536 14.3362 24.976C13.9362 25.416 13.7362 26.012 13.7362 26.764C13.7362 27.508 13.9362 28.104 14.3362 28.552C14.7442 28.992 15.2882 29.212 15.9682 29.212ZM28.9538 31H26.9018L23.4698 25.804V31H21.4178V22.576H23.4698L26.9018 27.796V22.576H28.9538V31ZM38.4682 22.576V24.22H35.0362V25.996H37.6042V27.592H35.0362V31H32.9842V22.576H38.4682ZM43.5307 31.084C42.7387 31.084 42.0107 30.9 41.3467 30.532C40.6907 30.164 40.1667 29.652 39.7747 28.996C39.3907 28.332 39.1987 27.588 39.1987 26.764C39.1987 25.94 39.3907 25.2 39.7747 24.544C40.1667 23.888 40.6907 23.376 41.3467 23.008C42.0107 22.64 42.7387 22.456 43.5307 22.456C44.3227 22.456 45.0467 22.64 45.7027 23.008C46.3667 23.376 46.8867 23.888 47.2627 24.544C47.6467 25.2 47.8387 25.94 47.8387 26.764C47.8387 27.588 47.6467 28.332 47.2627 28.996C46.8787 29.652 46.3587 30.164 45.7027 30.532C45.0467 30.9 44.3227 31.084 43.5307 31.084ZM43.5307 29.212C44.2027 29.212 44.7387 28.988 45.1387 28.54C45.5467 28.092 45.7507 27.5 45.7507 26.764C45.7507 26.02 45.5467 25.428 45.1387 24.988C44.7387 24.54 44.2027 24.316 43.5307 24.316C42.8507 24.316 42.3067 24.536 41.8987 24.976C41.4987 25.416 41.2987 26.012 41.2987 26.764C41.2987 27.508 41.4987 28.104 41.8987 28.552C42.3067 28.992 42.8507 29.212 43.5307 29.212ZM52.9643 31.084C52.1723 31.084 51.4443 30.9 50.7803 30.532C50.1243 30.164 49.6003 29.652 49.2083 28.996C48.8243 28.332 48.6323 27.588 48.6323 26.764C48.6323 25.94 48.8243 25.2 49.2083 24.544C49.6003 23.888 50.1243 23.376 50.7803 23.008C51.4443 22.64 52.1723 22.456 52.9643 22.456C53.7563 22.456 54.4803 22.64 55.1363 23.008C55.8003 23.376 56.3203 23.888 56.6963 24.544C57.0803 25.2 57.2723 25.94 57.2723 26.764C57.2723 27.588 57.0803 28.332 56.6963 28.996C56.3123 29.652 55.7923 30.164 55.1363 30.532C54.4803 30.9 53.7563 31.084 52.9643 31.084ZM52.9643 29.212C53.6363 29.212 54.1723 28.988 54.5723 28.54C54.9803 28.092 55.1843 27.5 55.1843 26.764C55.1843 26.02 54.9803 25.428 54.5723 24.988C54.1723 24.54 53.6363 24.316 52.9643 24.316C52.2843 24.316 51.7403 24.536 51.3323 24.976C50.9323 25.416 50.7323 26.012 50.7323 26.764C50.7323 27.508 50.9323 28.104 51.3323 28.552C51.7403 28.992 52.2843 29.212 52.9643 29.212ZM64.4739 22.576V24.22H62.2419V31H60.1899V24.22H57.9579V22.576H64.4739Z" fill="black"/>
</svg>
