<svg width="69" height="31" viewBox="0 0 69 31" fill="none" xmlns="http://www.w3.org/2000/svg">
<path d="M0.690969 4.296V0.48H7.33897V18H3.06697V4.296H0.690969ZM13.0264 8.592C11.5224 7.792 10.7704 6.536 10.7704 4.824C10.7704 3.96 10.9944 3.176 11.4424 2.472C11.8904 1.752 12.5704 1.184 13.4824 0.767999C14.3944 0.335999 15.5144 0.119998 16.8424 0.119998C18.1704 0.119998 19.2824 0.335999 20.1784 0.767999C21.0904 1.184 21.7704 1.752 22.2184 2.472C22.6664 3.176 22.8904 3.96 22.8904 4.824C22.8904 5.688 22.6824 6.44 22.2664 7.08C21.8664 7.72 21.3224 8.224 20.6344 8.592C21.4984 9.008 22.1624 9.584 22.6264 10.32C23.0904 11.04 23.3224 11.888 23.3224 12.864C23.3224 14 23.0344 14.984 22.4584 15.816C21.8824 16.632 21.0984 17.256 20.1064 17.688C19.1304 18.12 18.0424 18.336 16.8424 18.336C15.6424 18.336 14.5464 18.12 13.5544 17.688C12.5784 17.256 11.8024 16.632 11.2264 15.816C10.6504 14.984 10.3624 14 10.3624 12.864C10.3624 11.872 10.5944 11.016 11.0584 10.296C11.5224 9.56 12.1784 8.992 13.0264 8.592ZM18.9064 5.448C18.9064 4.792 18.7144 4.288 18.3304 3.936C17.9624 3.568 17.4664 3.384 16.8424 3.384C16.2184 3.384 15.7144 3.568 15.3304 3.936C14.9624 4.304 14.7784 4.816 14.7784 5.472C14.7784 6.096 14.9704 6.592 15.3544 6.96C15.7384 7.312 16.2344 7.488 16.8424 7.488C17.4504 7.488 17.9464 7.304 18.3304 6.936C18.7144 6.568 18.9064 6.072 18.9064 5.448ZM16.8424 10.368C16.0904 10.368 15.4824 10.576 15.0184 10.992C14.5544 11.392 14.3224 11.952 14.3224 12.672C14.3224 13.344 14.5464 13.896 14.9944 14.328C15.4584 14.76 16.0744 14.976 16.8424 14.976C17.6104 14.976 18.2104 14.76 18.6424 14.328C19.0904 13.896 19.3144 13.344 19.3144 12.672C19.3144 11.968 19.0824 11.408 18.6184 10.992C18.1704 10.576 17.5784 10.368 16.8424 10.368ZM39.3868 18L35.3068 12.384V18H31.2028V0.24H35.3068V10.056L39.3628 4.608H44.4268L38.8588 11.328L44.4748 18H39.3868ZM63.1268 4.464C64.7908 4.464 66.1108 4.968 67.0868 5.976C68.0788 6.984 68.5748 8.384 68.5748 10.176V18H64.4948V10.728C64.4948 9.864 64.2628 9.2 63.7988 8.736C63.3508 8.256 62.7268 8.016 61.9268 8.016C61.1268 8.016 60.4948 8.256 60.0308 8.736C59.5828 9.2 59.3588 9.864 59.3588 10.728V18H55.2788V10.728C55.2788 9.864 55.0468 9.2 54.5828 8.736C54.1348 8.256 53.5108 8.016 52.7108 8.016C51.9108 8.016 51.2788 8.256 50.8148 8.736C50.3668 9.2 50.1428 9.864 50.1428 10.728V18H46.0388V4.608H50.1428V6.288C50.5588 5.728 51.1028 5.288 51.7748 4.968C52.4468 4.632 53.2068 4.464 54.0548 4.464C55.0628 4.464 55.9588 4.68 56.7428 5.112C57.5428 5.544 58.1668 6.16 58.6148 6.96C59.0788 6.224 59.7108 5.624 60.5108 5.16C61.3108 4.696 62.1828 4.464 63.1268 4.464ZM10.3518 26.68C10.8398 26.784 11.2318 27.028 11.5278 27.412C11.8238 27.788 11.9718 28.22 11.9718 28.708C11.9718 29.412 11.7238 29.972 11.2278 30.388C10.7398 30.796 10.0558 31 9.17581 31H5.25181V22.576H9.04381C9.89981 22.576 10.5678 22.772 11.0478 23.164C11.5358 23.556 11.7798 24.088 11.7798 24.76C11.7798 25.256 11.6478 25.668 11.3838 25.996C11.1278 26.324 10.7838 26.552 10.3518 26.68ZM7.30381 25.984H8.64781C8.98381 25.984 9.23981 25.912 9.41581 25.768C9.59981 25.616 9.69181 25.396 9.69181 25.108C9.69181 24.82 9.59981 24.6 9.41581 24.448C9.23981 24.296 8.98381 24.22 8.64781 24.22H7.30381V25.984ZM8.81581 29.344C9.15981 29.344 9.42381 29.268 9.60781 29.116C9.79981 28.956 9.89581 28.728 9.89581 28.432C9.89581 28.136 9.79581 27.904 9.59581 27.736C9.40381 27.568 9.13581 27.484 8.79181 27.484H7.30381V29.344H8.81581ZM20.386 22.576L17.47 28.216V31H15.418V28.216L12.502 22.576H14.83L16.462 26.104L18.082 22.576H20.386ZM28.6397 31L25.8077 27.28V31H23.7557V22.576H25.8077V26.272L28.6157 22.576H31.0277L27.7637 26.704L31.1477 31H28.6397ZM37.3669 29.512H34.2229L33.7189 31H31.5709L34.6189 22.576H36.9949L40.0429 31H37.8709L37.3669 29.512ZM36.8389 27.928L35.7949 24.844L34.7629 27.928H36.8389ZM48.1946 22.576L45.2786 28.216V31H43.2266V28.216L40.3106 22.576H42.6386L44.2706 26.104L45.8906 22.576H48.1946ZM54.2653 29.512H51.1213L50.6173 31H48.4693L51.5173 22.576H53.8933L56.9413 31H54.7693L54.2653 29.512ZM53.7373 27.928L52.6933 24.844L51.6613 27.928H53.7373ZM62.753 31L59.921 27.28V31H57.869V22.576H59.921V26.272L62.729 22.576H65.141L61.877 26.704L65.261 31H62.753Z" fill="black"/>
</svg>
