<svg width="114" height="114" viewBox="0 0 114 114" fill="none" xmlns="http://www.w3.org/2000/svg">
<path d="M43.9345 20.6093C43.7565 20.0613 43.5565 19.5133 43.3625 18.9823L43.1565 18.4163C43.0415 18.0963 42.9405 17.7633 42.8435 17.4413C42.8055 17.3173 42.7575 17.1923 42.7185 17.0663C42.9205 17.1013 43.1335 17.1243 43.3745 17.1243C43.4965 17.1243 43.6235 17.1193 43.7585 17.1103C44.4725 17.0653 45.2555 16.8673 46.0855 16.5263C46.9485 16.1703 47.7055 15.7073 48.3655 15.1683C48.0365 16.0713 47.5205 16.9173 47.0595 17.5663C46.7065 18.0613 46.2925 18.5313 45.8925 18.9853C45.7155 19.1873 45.5385 19.3883 45.3655 19.5923C45.0025 20.0213 44.6105 20.4343 44.2305 20.8343C44.1795 20.8893 44.1285 20.9443 44.0765 20.9993C44.0305 20.8683 43.9775 20.7403 43.9345 20.6093ZM39.0505 30.8223C39.7095 29.9043 40.3975 28.9753 41.0995 28.0543L41.2335 27.8773C41.7365 27.2163 42.2555 26.5323 42.8105 25.9033C43.0825 25.5953 43.3865 25.3093 43.6795 25.0313C43.8465 24.8743 44.0135 24.7153 44.1765 24.5523C44.1815 24.5473 44.1865 24.5453 44.1915 24.5403C44.2885 24.8093 44.4095 25.0703 44.6005 25.2953C44.6575 25.3613 44.7325 25.3953 44.8145 25.3953C44.8685 25.3953 44.9245 25.3813 44.9795 25.3523C45.1485 25.2633 45.3035 25.0383 45.2545 24.8563C45.2055 24.6713 45.1685 24.4863 45.1295 24.3023C45.3135 24.3733 45.5035 24.5003 45.7095 24.6653C46.1635 25.0303 46.6435 25.3723 47.1075 25.7033C47.6535 26.0913 48.2175 26.4923 48.7395 26.9333C49.7405 27.7773 50.7165 28.5293 51.6395 29.1683C52.1025 29.4883 52.5835 29.7803 53.0765 30.0593C53.0675 30.1083 53.0505 30.1583 53.0325 30.1943C52.9345 30.3863 52.7205 30.5543 52.5575 30.4873C52.2955 30.3843 52.0665 30.0523 51.8835 29.7863C51.8345 29.7153 51.7875 29.6483 51.7435 29.5873L51.7025 29.5323C51.3295 29.0273 50.8185 28.3363 50.0445 28.6333C49.7885 28.7323 49.6365 28.9503 49.5025 29.1423C49.3915 29.3033 49.2855 29.4543 49.1375 29.5193C49.1325 29.5213 49.1255 29.5243 49.1195 29.5273C49.1005 29.5063 49.0755 29.4743 49.0605 29.4543C49.0395 29.4273 49.0205 29.4023 49.0075 29.3883C48.7395 29.0973 48.4655 28.8453 48.1935 28.6403C47.6985 28.2653 47.1145 28.1073 46.6315 28.2173C46.2595 28.3033 45.9605 28.5463 45.7685 28.9213C45.3885 29.6633 45.8465 30.4703 46.2885 31.2513C46.7955 32.1463 47.2335 32.9193 46.4045 33.4763C45.6535 33.9813 44.2355 34.2413 43.6295 33.5213C43.1285 32.9253 43.3105 32.1333 43.4865 31.3663C43.5205 31.2173 43.5545 31.0713 43.5815 30.9313C43.6725 30.4603 43.6965 29.9713 43.2515 29.5893C42.8795 29.2703 42.3955 29.1373 41.8895 29.2093C41.3095 29.2943 40.7755 29.6343 40.4625 30.1193C39.8295 31.1023 39.0005 32.1323 38.0035 32.0743C38.2395 31.8213 38.4725 31.5643 38.6905 31.2963C38.6965 31.2903 38.7025 31.2853 38.7085 31.2793L38.7175 31.2873L38.7965 31.1753C38.7975 31.1743 38.7975 31.1733 38.7985 31.1733L38.8005 31.1713C38.8345 31.1223 38.8695 31.0733 38.9045 31.0253C38.9315 30.9893 38.9575 30.9543 38.9845 30.9193L39.0575 30.8283L39.0505 30.8223ZM55.4455 84.2313C55.7155 84.4403 56.0875 84.5953 56.5605 84.6643C56.5635 84.6653 56.5655 84.6673 56.5685 84.6683C57.4085 84.8843 58.0245 85.2343 57.8855 86.1743C57.8285 86.5703 57.6845 86.9623 57.4355 87.2783C57.1725 87.6133 56.8605 87.7453 56.5145 87.8843C56.4325 87.8633 56.3465 87.8553 56.2515 87.8813C55.8045 88.0073 55.0225 88.3373 54.5705 88.1443C53.5685 87.7193 54.3545 86.8023 54.7635 86.4153C55.2365 85.9663 55.7295 85.5133 55.6545 84.7983C55.6305 84.5703 55.5545 84.3853 55.4455 84.2313ZM56.1725 92.3703C55.8185 93.0563 55.4675 94.0063 55.3335 94.9233C55.3315 94.9253 55.3295 94.9263 55.3275 94.9293C54.9485 95.3593 53.2415 97.4233 52.7475 96.3903C52.0495 94.9353 54.4755 92.8123 55.4145 92.0983C55.6485 92.2143 55.9065 92.3033 56.1725 92.3703ZM60.7515 90.8273C59.3305 91.5683 58.8565 92.8483 58.5145 94.3883C58.3835 94.9803 58.0685 97.4923 56.7655 96.6233C56.3325 96.3343 56.2125 95.8553 56.2555 95.3173C56.2555 95.3163 56.2565 95.3153 56.2565 95.3143C56.2645 95.2853 56.2605 95.2603 56.2635 95.2333C56.3725 94.2513 57.0015 93.0993 57.3485 92.5243C57.4875 92.5253 57.6195 92.5223 57.7345 92.5103C58.2595 92.4573 58.1965 91.8553 57.7795 91.6993C57.0405 91.4233 55.4595 91.7183 55.3455 90.6283C55.3095 90.2843 54.6505 90.1213 54.5395 90.5003C54.4035 90.9653 54.5195 91.3373 54.7755 91.6303C54.0785 92.1163 53.0425 92.9433 52.3165 93.8963C52.2655 93.9103 52.2145 93.9243 52.1685 93.9533C51.6915 94.2503 50.7935 94.7983 50.4135 94.2973C50.0655 93.8373 50.5705 93.2013 50.8795 92.7803C51.6475 91.7333 52.8005 90.8663 54.1285 90.7863C54.5615 90.7593 54.4465 90.2433 54.0585 90.2273C53.9335 90.2223 53.8095 90.2413 53.6845 90.2473C53.6465 90.1733 53.5765 90.1073 53.4565 90.0693C51.6785 89.4973 51.0795 87.7303 51.8065 86.0763C52.1035 85.4003 52.5685 84.8273 53.2995 84.6363C53.6525 84.5453 54.4535 84.3953 54.5665 84.9683C54.6265 85.2733 54.1185 85.6093 53.9335 85.7863C53.1915 86.4933 52.6085 87.4343 53.2935 88.4313C54.0425 89.5193 55.6075 89.2073 56.6385 88.7983C56.7085 88.7713 56.7625 88.7333 56.8065 88.6923C57.9765 88.4863 58.7995 87.3003 58.9055 86.1463C59.0325 84.7693 58.0155 84.2553 56.8225 84.1663C55.8265 83.6303 55.9155 82.5173 57.0695 82.3433C58.0605 82.1943 58.7875 82.8563 59.3295 83.5653C59.8645 84.2643 60.2465 85.0983 60.8135 85.7673C61.6885 86.7973 62.9455 87.0243 64.2245 86.7613C64.6135 87.7123 64.4825 88.5563 64.0545 89.2933C63.7705 89.4603 63.5785 89.7363 63.4965 90.0363C63.2165 90.3363 62.8915 90.6113 62.5395 90.8643C62.4565 90.7623 62.3655 90.6663 62.2505 90.5823C61.9015 90.3243 61.5025 90.1773 61.0675 90.2123C60.7005 90.2403 60.6095 90.5863 60.7515 90.8273ZM93.0645 86.1463C93.0625 86.1223 93.0635 86.1003 93.0515 86.0733C91.2365 81.8493 86.1325 82.3633 83.1735 84.7783C79.9695 87.3933 79.2845 90.7093 80.4995 94.0333C78.0135 91.5333 74.3725 90.2033 70.7365 89.5833C68.9355 89.0793 67.1205 88.7413 65.3865 88.5513C65.4915 87.7923 65.3145 86.9803 64.7475 86.1533C64.7465 86.1493 64.7415 86.1483 64.7395 86.1443C64.6505 85.9613 64.4385 85.8103 64.1525 85.8363C63.3915 85.9013 62.5665 86.0323 61.9025 85.4823C61.5365 85.1803 61.2705 84.5963 61.0045 84.2083C60.5735 83.5763 60.1315 82.8413 59.5485 82.3323C58.7075 81.5983 57.5165 81.2953 56.4415 81.6323C54.9975 82.0883 54.5995 83.2003 55.1695 83.9553C54.4645 83.4563 53.1765 83.6053 52.4785 83.9003C51.1055 84.4813 50.3795 86.1803 50.4175 87.5943C50.4555 89.0243 51.2355 90.0523 52.4495 90.4683C50.9495 90.9703 49.6575 92.2053 49.1855 93.7283C48.6335 95.5163 50.2295 95.6663 51.5835 95.2693C51.3965 95.9213 51.4585 96.5793 51.9615 97.1843C52.7875 98.1773 54.4015 97.5063 55.4095 96.5553C55.6345 97.2573 56.1755 97.7513 57.2335 97.7573C58.4455 97.7663 59.0385 96.7123 59.3095 95.6743C59.7515 93.9763 59.7715 92.2463 61.4105 91.2023C61.4305 91.1893 61.4395 91.1743 61.4555 91.1603C61.5435 91.1893 61.6325 91.2173 61.7205 91.2783C61.7995 91.3323 61.8705 91.3993 61.9445 91.4593C61.9765 91.7563 62.4965 92.0193 62.8475 91.8093C63.1885 91.6043 63.5045 91.3763 63.7955 91.1303C63.9435 91.2393 64.1365 91.3053 64.3855 91.3013C69.6455 91.2073 76.8515 92.1853 80.1095 97.0113C73.3795 100.829 65.6125 103.02 57.3385 103.02C31.8025 103.02 11.0285 82.2463 11.0285 56.7113C11.0285 54.2563 11.2245 51.8483 11.5935 49.4963C12.6145 50.3313 13.5965 50.8523 14.6215 51.0993C15.0475 51.2013 15.4985 51.2533 15.9605 51.2533C16.7555 51.2533 17.5845 51.1023 18.3855 50.8063C21.3615 49.7083 23.8505 47.3483 25.9495 45.2223C26.1215 45.0473 26.1865 44.8303 26.1305 44.6243C26.0735 44.4193 25.8985 44.2523 25.6845 44.1973C25.4595 44.1373 25.2265 44.2123 25.0475 44.3973C23.0575 46.4443 20.8695 48.4853 18.3485 49.5473C17.2705 50.0033 16.1365 50.1453 15.1495 49.9483C13.8055 49.6793 12.7035 48.8493 11.8515 48.0593C15.9155 26.6463 34.7605 10.4013 57.3385 10.4013C76.6425 10.4013 93.2175 22.2773 100.163 39.1043C99.5655 39.0373 98.9705 38.9803 98.3895 38.9313C97.0265 38.8173 95.6175 38.6993 94.2395 38.3593C92.4045 37.9093 90.5965 37.2023 88.8675 36.2603C86.2975 34.8603 83.8095 32.8513 81.0365 29.9373C80.5275 29.4033 80.0215 28.8353 79.5325 28.2853C78.3485 26.9563 77.1235 25.5813 75.7015 24.4943C74.0065 23.1993 72.3945 22.9333 70.9115 23.7033C69.5595 24.4053 68.2525 25.3973 66.8705 26.4473C63.8765 28.7183 60.7805 31.0553 57.1375 30.3673C56.9485 30.2903 56.7615 30.2113 56.5715 30.1353C55.8415 29.8433 55.0855 29.5423 54.3935 29.1643C53.4245 28.6353 52.5265 27.9733 51.6595 27.3323L51.1625 26.9663C50.6935 26.6243 50.2265 26.2603 49.7765 25.9083C49.1315 25.4063 48.4655 24.8863 47.7765 24.4163C47.5725 24.2763 47.3375 24.0763 47.0885 23.8643C46.4665 23.3353 45.7625 22.7353 45.0845 22.6683C44.9515 22.6533 44.8245 22.6683 44.7015 22.6923L44.5455 22.2863C44.5005 22.1683 44.4595 22.0443 44.4135 21.9243C45.1225 21.5243 45.7045 20.9243 46.2765 20.3153C46.4005 20.1823 46.5255 20.0513 46.6505 19.9213C47.1975 19.3463 47.7625 18.7533 48.2365 18.0883C49.0655 16.9213 50.0555 15.1493 50.0635 13.3313C50.0635 13.3123 50.0535 13.2983 50.0525 13.2803C50.1165 13.1283 50.1435 12.9703 50.0875 12.8163C50.0075 12.5983 49.8125 12.4343 49.5925 12.3983C49.3715 12.3593 49.1605 12.4533 49.0045 12.6483C48.8915 12.7883 48.7825 12.9333 48.6745 13.0773C48.4545 13.3713 48.2275 13.6733 47.9635 13.9313C47.4135 14.4693 46.7495 14.9253 45.9935 15.2873C44.5895 15.9573 43.2775 16.1483 42.0885 15.8523C41.9215 15.8133 41.7205 15.9303 41.6315 16.0633C41.5805 16.1413 41.5755 16.2233 41.5935 16.3013C41.5235 16.4133 41.4745 16.5343 41.4885 16.6503C41.5625 17.2963 41.8055 17.9353 42.0395 18.5533C42.0935 18.6943 42.1465 18.8343 42.1975 18.9723C42.4575 19.6853 42.7345 20.4533 42.9975 21.2353C43.1855 21.7923 43.4035 22.3463 43.6145 22.8813C43.6605 22.9993 43.7055 23.1163 43.7515 23.2333C43.5575 23.4113 43.3775 23.6083 43.2135 23.7903C43.0925 23.9243 42.9765 24.0533 42.8645 24.1643C42.1825 24.8333 41.5205 25.5943 40.7185 26.6323C39.8315 27.7793 38.9365 28.9893 37.9845 30.3273C36.3745 32.4573 34.3345 34.3123 32.3605 36.1083C31.5245 36.8673 30.6615 37.6533 29.8495 38.4423C29.6745 38.6123 29.6925 38.8313 29.7995 38.9603C29.8565 39.0283 29.9475 39.0773 30.0525 39.0773C30.1265 39.0773 30.2075 39.0523 30.2895 38.9943C32.4235 37.4703 34.5945 35.5733 36.9245 33.1963L37.1015 33.0163C37.1625 32.9543 37.2225 32.8903 37.2835 32.8283C37.4645 32.9563 37.6655 33.0403 37.8915 33.0673C38.7125 33.1733 39.5285 32.5673 39.8385 32.3033C40.2485 31.9543 40.6335 31.5293 41.0145 31.0043C41.2345 30.7003 41.5675 30.2423 41.9425 30.1933C42.1075 30.1733 42.2685 30.2283 42.4385 30.3673C42.6815 30.5653 42.5235 31.2493 42.3965 31.7973C42.3165 32.1473 42.2405 32.4773 42.2475 32.7183C42.2685 33.4393 42.5535 34.1063 43.0085 34.5023C43.4745 34.9093 44.0975 35.0623 44.7265 35.0623C45.2235 35.0623 45.7255 34.9663 46.1555 34.8233C47.2895 34.4483 47.9755 33.7113 48.0385 32.7993C48.0915 32.0203 47.7295 31.3773 47.3805 30.7553C47.2445 30.5123 47.1035 30.2623 46.9905 30.0083C46.8305 29.6493 46.8135 29.4273 46.8665 29.3743C46.8955 29.3433 47.0065 29.3403 47.2155 29.4273C47.5085 29.5493 47.7145 29.7933 47.9325 30.0503C48.1215 30.2753 48.3185 30.5083 48.5805 30.6543C48.9975 30.8883 49.5025 30.7333 50.0005 30.2143C50.1075 30.1023 50.1815 29.9973 50.2395 29.9133C50.2775 29.8583 50.3245 29.7903 50.3345 29.7813C50.3425 29.7833 50.3915 29.7993 50.5385 29.9703C50.6645 30.1163 50.7875 30.2873 50.9165 30.4673C51.3815 31.1133 51.9045 31.8433 52.8235 31.7263C53.4255 31.6473 53.8835 31.1423 54.1035 30.6043C54.7045 30.8973 55.3475 31.1613 56.0175 31.4123C56.1005 31.5103 56.2055 31.5893 56.3485 31.6253C56.5345 31.6713 56.7195 31.7013 56.9035 31.7323C56.9555 31.7493 57.0005 31.7693 57.0525 31.7863C57.1665 31.8233 57.2765 31.8203 57.3825 31.7983C61.1915 32.2033 64.6265 29.7033 67.6865 27.4683C68.4115 26.9403 69.0945 26.4403 69.7705 25.9863C69.9435 25.8713 70.1175 25.7443 70.2935 25.6143C70.9895 25.1073 71.7065 24.5833 72.5395 24.5833H72.5685C73.3995 24.5953 74.1675 25.0933 74.6725 25.4663C76.1005 26.5213 77.3255 27.9003 78.5095 29.2343C78.9755 29.7583 79.4565 30.3013 79.9415 30.8123C82.6185 33.6333 85.0345 35.6313 87.5445 37.0993C89.3485 38.1533 91.2985 38.9693 93.3415 39.5243C95.4555 40.0983 97.2795 40.3823 98.8595 40.3823C99.4825 40.3823 100.061 40.3283 100.611 40.2393C102.567 45.3603 103.649 50.9103 103.649 56.7113C103.649 67.8803 99.6735 78.1383 93.0645 86.1463ZM89.9755 89.5303C89.8945 89.2153 89.7655 88.9073 89.6475 88.6393C89.3715 88.0103 88.1295 85.7953 87.2105 86.9903C87.0915 87.1453 87.0635 87.3333 87.1215 87.4943C87.0995 87.5303 87.0865 87.5713 87.0905 87.6213C87.1795 88.5953 87.6155 90.2883 88.5745 90.8673C87.7225 91.6463 86.8355 92.3863 85.9275 93.1013C85.9215 92.7473 85.7885 92.3493 85.6715 92.0623C85.3305 91.2243 84.8635 90.2833 84.2265 89.6253C83.9455 89.3353 83.5255 89.1563 83.1535 89.4063C82.6145 89.7683 82.7565 90.6233 82.9075 91.1823C83.0785 92.2253 83.8095 93.7453 84.9055 93.8963C84.1245 94.4763 83.3205 95.0253 82.5025 95.5563C81.2425 92.8823 79.9945 89.9093 82.0935 87.2353C84.6665 83.9583 89.5355 82.0803 92.3545 86.2493C92.4425 86.3803 92.6955 86.4153 92.8765 86.3623C91.9575 87.4623 90.9915 88.5203 89.9755 89.5303ZM57.2845 8.95528C30.9815 8.95528 9.58252 30.3543 9.58252 56.6563C9.58252 82.9603 30.9815 104.358 57.2845 104.358C66.5175 104.358 75.1415 101.713 82.4535 97.1523C82.7165 97.1763 82.9795 97.0413 83.0085 96.7963C96.2135 88.3023 104.986 73.4903 104.986 56.6563C104.986 30.3543 83.5865 8.95528 57.2845 8.95528Z" fill="#231F20"/>
<path d="M34.3738 43.3579H35.8448C37.1638 43.3579 38.1238 43.5469 38.7278 43.9249C39.3308 44.3029 39.6318 45.0699 39.6318 46.2279C39.6318 48.1419 38.4578 49.0979 36.1098 49.0979H34.3738V43.3579ZM36.6888 55.0069L34.3738 54.9349V51.4379H36.4238C38.3048 51.4379 39.8158 50.9669 40.9578 50.0269C42.0998 49.0859 42.6708 47.7719 42.6708 46.0839C42.6708 44.3949 42.1678 43.1289 41.1638 42.2849C40.1578 41.4409 38.7548 41.0179 36.9548 41.0179H30.0568V43.0679L31.4308 43.1409V54.3569C31.4308 54.7579 31.1978 54.9829 30.7318 55.0319L29.9358 55.1039V57.0579H36.6888V55.0069Z" fill="#231F20"/>
<path d="M46.2161 44.1539C46.2161 43.6559 46.4011 43.4059 46.7711 43.4059H48.6521V54.3569C48.6521 54.7579 48.4191 54.9839 47.9531 55.0319L46.6741 55.1039V57.0579H53.4761V55.0079L51.5701 54.9349V43.4059H53.2111C53.5161 43.4059 53.7091 43.4629 53.7901 43.5749C53.8701 43.6879 53.9101 43.8809 53.9101 44.1539V45.2879L56.3701 45.1189V41.0179H43.7561V45.1189L46.2161 45.2879V44.1539Z" fill="#231F20"/>
<path d="M66.8142 55.0073L64.9102 54.9353V43.4063H66.5482C66.8552 43.4063 67.0462 43.4623 67.1282 43.5743C67.2092 43.6873 67.2482 43.8803 67.2482 44.1533V45.2873L69.7092 45.1183V41.0183H57.0942V45.1183L59.5542 45.2873V44.1533C59.5542 43.6553 59.7402 43.4063 60.1092 43.4063H61.9902V54.3563C61.9902 54.7583 61.7572 54.9833 61.2912 55.0313L60.0132 55.1043V57.0573H66.8142V55.0073Z" fill="#231F20"/>
<path d="M79.284 47.9165L82.709 43.7195C83.047 43.3015 83.368 43.0765 83.674 43.0445L84.47 42.9715V41.0185H78.825V43.0685L80.177 43.1405L75.256 49.1225V43.8155C75.256 43.3505 75.489 43.0925 75.955 43.0445L76.751 42.9715V41.0185H70.963V43.0685L72.338 43.1405V54.2355C72.338 54.5245 72.281 54.7225 72.169 54.8265C72.055 54.9315 71.879 54.9995 71.638 55.0315L70.842 55.1035V57.0575H76.631V55.0075L75.256 54.9355V52.6915L77.379 50.1355L79.766 54.2595C79.846 54.4205 79.887 54.5495 79.887 54.6455C79.887 54.8715 79.725 54.9995 79.404 55.0315L78.657 55.1035V57.0575H84.831V55.0075L83.553 54.9355L79.284 47.9165Z" fill="#231F20"/>
<path d="M36.6288 67.7421H34.5308V62.6521H36.2918C37.4488 62.6521 38.2888 62.8051 38.8118 63.1111C39.3338 63.4171 39.5958 64.0761 39.5958 65.0891C39.5958 66.8571 38.6068 67.7421 36.6288 67.7421ZM41.0668 70.4681C40.7298 69.6951 40.2708 69.2051 39.6918 68.9961C40.4798 68.6751 41.1588 68.1601 41.7298 67.4521C42.3008 66.7451 42.5868 65.8451 42.5868 64.7511C42.5868 63.1761 42.0878 62.0421 41.0908 61.3501C40.0938 60.6591 38.6628 60.3131 36.7978 60.3131H30.2128V62.3631L31.5878 62.4351V73.6511C31.5878 74.0541 31.3548 74.2781 30.8888 74.3261L30.0928 74.3981V76.3521H36.0978V74.3031L34.5308 74.2301V70.0331H36.7258C37.1268 70.0331 37.4368 70.1181 37.6538 70.2861C37.8708 70.4551 38.0678 70.7411 38.2448 71.1421L39.3788 73.5541C39.4428 73.6831 39.4748 73.7961 39.4748 73.8921C39.4748 74.1341 39.2898 74.2781 38.9208 74.3261L38.2208 74.3981V76.3521H44.1778V74.3031L42.8038 74.2541L41.0668 70.4681Z" fill="#231F20"/>
<path d="M59.2527 62.3632L60.5557 62.4602L58.5057 72.5422H58.4567L55.8517 61.5922H52.7407L50.2317 72.4932H50.1357L48.0367 63.1832C48.0207 63.1032 48.0127 63.0302 48.0127 62.9662C48.0127 62.5962 48.2617 62.3872 48.7607 62.3392L49.5567 62.2662V60.3132H43.5747V62.3632L44.9497 62.4352L48.2777 76.3522H51.6787L54.1397 65.6192H54.2117L56.7437 76.3522H60.0487L63.0877 63.2072C63.1997 62.6612 63.4657 62.3722 63.8837 62.3392L64.6797 62.2662V60.3132H59.2527V62.3632Z" fill="#231F20"/>
<path d="M82.3357 63.1835C82.3187 62.6685 82.5527 62.3875 83.0347 62.3385L83.8307 62.2665V60.3135H79.0557L74.9307 71.2145H74.8827L70.7817 60.3135H65.9347V62.3635L67.4047 62.4595L66.7547 73.6745C66.7217 74.0775 66.5217 74.2945 66.1507 74.3265L65.2827 74.3985V76.3525H70.9757V74.3025L69.4067 74.2305L69.8897 65.2825H69.9387L73.6047 74.8085H75.8957L79.6097 65.1855H79.6577L80.1157 73.6995C80.1327 74.0845 79.9237 74.2945 79.4887 74.3265L78.6207 74.3985V76.3525H84.4337V74.3025L82.9387 74.2305L82.3357 63.1835Z" fill="#231F20"/>
<path d="M65.8611 30.2299C65.9721 30.2999 66.1621 30.2979 66.3041 30.1229C66.6381 29.7089 67.1541 29.1269 67.7731 28.8379C68.0901 28.6899 68.4941 28.5339 68.7851 28.6329C69.0471 28.7199 69.2081 29.0479 69.3371 29.3119L69.3531 29.3449C69.4241 29.4879 69.4931 29.6379 69.5621 29.7889C69.9961 30.7299 70.4871 31.7969 71.7361 31.8929C71.7871 31.8969 71.8371 31.8979 71.8861 31.8979C72.4221 31.8979 72.9471 31.6789 73.4481 31.2429C73.7261 31.0019 73.9381 30.7909 74.1131 30.5779C74.1941 30.4809 74.2641 30.3739 74.3331 30.2709C74.4321 30.1189 74.5261 29.9769 74.6461 29.8669C74.9311 29.6059 75.5361 29.7269 76.3461 30.2089C76.8201 30.4909 77.2151 30.9069 77.5961 31.3089C77.7041 31.4219 77.8111 31.5349 77.9201 31.6449C78.1471 31.8759 78.4941 31.8799 78.7801 31.6489C79.0491 31.4339 79.2101 31.0439 78.9991 30.7159C78.2541 29.5629 76.6831 28.3909 75.1231 28.3779H75.1061C74.2391 28.3779 73.7391 28.9309 73.3651 29.4729C72.8941 30.1529 72.3731 30.7649 71.7151 30.5919C71.0961 30.4309 70.8271 29.8269 70.5401 29.1869C70.2201 28.4729 69.8901 27.7339 69.0411 27.5859C67.5141 27.3199 66.2411 28.7569 65.7601 29.7869C65.6661 29.9889 65.7461 30.1589 65.8611 30.2299Z" fill="#231F20"/>
<path d="M57.0252 107.545C28.9582 107.545 6.20623 84.9079 6.20623 56.9839C6.20623 29.0609 28.9582 6.42386 57.0252 6.42386C85.0912 6.42386 107.844 29.0609 107.844 56.9839C107.844 84.9079 85.0912 107.545 57.0252 107.545ZM110.847 58.0919C110.359 57.4399 110.359 56.5289 110.847 55.8779L112.394 53.8129C113.587 52.2199 113.345 49.9449 111.847 48.6349L109.903 46.9349C109.29 46.3979 109.099 45.5069 109.44 44.7689L110.522 42.4289C111.354 40.6239 110.644 38.4489 108.904 37.4769L106.647 36.2159C105.923 35.8119 105.56 34.9989 105.742 34.1929L106.31 31.6809C106.749 29.7439 105.599 27.7629 103.693 27.1719L101.222 26.4049C100.443 26.1639 99.9052 25.4269 99.9152 24.6139L99.9462 22.0389C99.9692 20.0539 98.4302 18.3539 96.4442 18.1699L93.8672 17.9309C93.0402 17.8549 92.3752 17.2589 92.2132 16.4499L91.7052 13.9249C91.3132 11.9789 89.4562 10.6329 87.4712 10.8639L84.9002 11.1639C84.0902 11.2569 83.2962 10.8039 82.9722 10.0569L81.9482 7.69186C81.1582 5.86786 79.0592 4.93786 77.1682 5.57486L74.7152 6.39886C73.9442 6.65986 73.0712 6.37786 72.5982 5.71486L71.1022 3.61486C69.9492 1.99286 67.6982 1.51786 65.9842 2.53186L63.7582 3.84486C63.0442 4.26686 62.1562 4.17286 61.5452 3.61386L59.6412 1.86786C58.1742 0.521859 55.8762 0.521859 54.4082 1.86786L52.5062 3.61386C51.9052 4.16486 50.9962 4.25986 50.2922 3.84586L48.0672 2.53186C46.3492 1.51786 44.1022 1.99486 42.9472 3.61386L41.4512 5.71486C40.9802 6.37786 40.1082 6.65986 39.3342 6.39886L36.8822 5.57486C34.9902 4.93786 32.8922 5.86986 32.1022 7.69186L31.0772 10.0569C30.7542 10.8029 29.9582 11.2559 29.1502 11.1639L26.5792 10.8639C24.5932 10.6299 22.7372 11.9779 22.3462 13.9249L21.8372 16.4499C21.6772 17.2469 20.9972 17.8559 20.1832 17.9309L17.6072 18.1699C15.6192 18.3539 14.0822 20.0539 14.1052 22.0389L14.1352 24.6139C14.1452 25.4269 13.6082 26.1639 12.8272 26.4049L10.3572 27.1719C8.45223 27.7629 7.30123 29.7439 7.74023 31.6809L8.30823 34.1929C8.48823 34.9859 8.11523 35.8179 7.40223 36.2159L5.14623 37.4769C3.40623 38.4489 2.69523 40.6239 3.52923 42.4289L4.61023 44.7679C4.95123 45.5069 4.76023 46.3979 4.14723 46.9349L2.20423 48.6349C0.704228 49.9449 0.464227 52.2199 1.65623 53.8129L3.20223 55.8779C3.69123 56.5289 3.69123 57.4399 3.20223 58.0919L1.65723 60.1569C0.464227 61.7499 0.704228 64.0239 2.20423 65.3349L4.14723 67.0349C4.76123 67.5709 4.95123 68.4629 4.61023 69.2009L3.52923 71.5409C2.69623 73.3449 3.40623 75.5199 5.14623 76.4919L7.40223 77.7539C8.11523 78.1509 8.48823 78.9829 8.30823 79.7759L7.74023 82.2879C7.30223 84.2269 8.45223 86.2059 10.3572 86.7979L12.8272 87.5629C13.6192 87.8099 14.1452 88.5299 14.1352 89.3559L14.1052 91.9299C14.0822 93.9149 15.6192 95.6149 17.6072 95.7999L20.1842 96.0389C20.9972 96.1129 21.6772 96.7229 21.8372 97.5199L22.3462 100.045C22.7372 101.992 24.6032 103.338 26.5792 103.106L29.1502 102.806C29.9682 102.707 30.7542 103.166 31.0772 103.912L32.1022 106.277C32.8922 108.1 34.9892 109.031 36.8822 108.395L39.3342 107.57C40.1202 107.304 40.9712 107.58 41.4512 108.255L42.9472 110.356C44.1022 111.977 46.3512 112.45 48.0672 111.439L50.2922 110.125C50.9952 109.71 51.9052 109.805 52.5052 110.356L54.4082 112.102C55.1422 112.774 56.0842 113.11 57.0252 113.11C57.9662 113.11 58.9082 112.774 59.6412 112.102L61.5452 110.356C62.1522 109.797 63.0432 109.701 63.7582 110.125L65.9842 111.439C67.7002 112.449 69.9492 111.975 71.1012 110.356L72.5992 108.255C73.0792 107.58 73.9332 107.307 74.7152 107.57L77.1682 108.395C79.0562 109.03 81.1582 108.102 81.9482 106.277L82.9722 103.912C83.2962 103.165 84.0912 102.705 84.9002 102.806L87.4712 103.106C89.4652 103.34 91.3122 101.991 91.7052 100.045L92.2132 97.5199C92.3752 96.7099 93.0402 96.1139 93.8672 96.0389L96.4442 95.7999C98.4302 95.6149 99.9692 93.9149 99.9462 91.9299L99.9152 89.3559C99.9052 88.5299 100.431 87.8099 101.222 87.5649L103.693 86.7979C105.599 86.2059 106.749 84.2259 106.31 82.2879L105.742 79.7769C105.562 78.9829 105.935 78.1509 106.648 77.7539L108.904 76.4919C110.644 75.5199 111.354 73.3449 110.521 71.5409L109.441 69.2019C109.099 68.4629 109.29 67.5709 109.903 67.0349L111.847 65.3349C113.345 64.0239 113.587 61.7499 112.394 60.1569L110.847 58.0919Z" fill="#231F20"/>
</svg>
