<svg width="125" height="39" viewBox="0 0 125 39" fill="none" xmlns="http://www.w3.org/2000/svg">
<path d="M16 10C14.355 10 13 11.355 13 13C13 14.125 13.633 15.113 14.563 15.625L11.624 21.5L7.03 18.219C7.633 17.668 8 16.87 8 16C8 14.355 6.645 13 5 13C3.355 13 2 14.355 2 16C2 17.348 2.926 18.469 4.156 18.844L6 29V34H26V29L27.844 18.844C29.074 18.469 30 17.348 30 16C30 14.355 28.645 13 27 13C25.355 13 24 14.355 24 16C24 16.871 24.367 17.668 24.969 18.219L20.375 21.5L17.437 15.625C17.9085 15.3672 18.3022 14.9877 18.5771 14.526C18.852 14.0643 18.9981 13.5373 19 13C19 11.355 17.645 10 16 10ZM16 12C16.563 12 17 12.438 17 13C17 13.563 16.562 14 16 14C15.437 14 15 13.562 15 13C15 12.437 15.438 12 16 12ZM5 15C5.563 15 6 15.438 6 16C6 16.563 5.562 17 5 17C4.437 17 4 16.562 4 16C4 15.437 4.438 15 5 15ZM27 15C27.563 15 28 15.438 28 16C28 16.563 27.562 17 27 17C26.437 17 26 16.562 26 16C26 15.437 26.438 15 27 15ZM16 17.25L19.094 23.438L20.594 23.813L25.594 20.25L24.187 28H7.813L6.407 20.25L11.407 23.813L12.907 23.438L16 17.25ZM8 30H24V32H8V30Z" fill="black"/>
<path d="M31.2446 17.712C31.7886 17.28 32.0366 17.08 31.9886 17.112C33.5566 15.816 34.7886 14.752 35.6846 13.92C36.5966 13.088 37.3646 12.216 37.9886 11.304C38.6126 10.392 38.9246 9.504 38.9246 8.64C38.9246 7.984 38.7726 7.472 38.4686 7.104C38.1646 6.736 37.7086 6.552 37.1006 6.552C36.4926 6.552 36.0126 6.784 35.6606 7.248C35.3246 7.696 35.1566 8.336 35.1566 9.168H31.1966C31.2286 7.808 31.5166 6.672 32.0606 5.76C32.6206 4.848 33.3486 4.176 34.2446 3.744C35.1566 3.312 36.1646 3.096 37.2686 3.096C39.1726 3.096 40.6046 3.584 41.5646 4.56C42.5406 5.536 43.0286 6.808 43.0286 8.376C43.0286 10.088 42.4446 11.68 41.2766 13.152C40.1086 14.608 38.6206 16.032 36.8126 17.424H43.2926V20.76H31.2446V17.712ZM54.6975 9.504C55.0975 8.88 55.6495 8.376 56.3535 7.992C57.0575 7.608 57.8815 7.416 58.8255 7.416C59.9295 7.416 60.9295 7.696 61.8255 8.256C62.7215 8.816 63.4255 9.616 63.9375 10.656C64.4655 11.696 64.7295 12.904 64.7295 14.28C64.7295 15.656 64.4655 16.872 63.9375 17.928C63.4255 18.968 62.7215 19.776 61.8255 20.352C60.9295 20.912 59.9295 21.192 58.8255 21.192C57.8975 21.192 57.0735 21 56.3535 20.616C55.6495 20.232 55.0975 19.736 54.6975 19.128V27.384H50.5935V7.608H54.6975V9.504ZM60.5535 14.28C60.5535 13.256 60.2655 12.456 59.6895 11.88C59.1295 11.288 58.4335 10.992 57.6015 10.992C56.7855 10.992 56.0895 11.288 55.5135 11.88C54.9535 12.472 54.6735 13.28 54.6735 14.304C54.6735 15.328 54.9535 16.136 55.5135 16.728C56.0895 17.32 56.7855 17.616 57.6015 17.616C58.4175 17.616 59.1135 17.32 59.6895 16.728C60.2655 16.12 60.5535 15.304 60.5535 14.28ZM79.5065 14.088C79.5065 14.472 79.4825 14.872 79.4345 15.288H70.1465C70.2105 16.12 70.4745 16.76 70.9385 17.208C71.4185 17.64 72.0025 17.856 72.6905 17.856C73.7145 17.856 74.4265 17.424 74.8265 16.56H79.1945C78.9705 17.44 78.5625 18.232 77.9705 18.936C77.3945 19.64 76.6665 20.192 75.7865 20.592C74.9065 20.992 73.9225 21.192 72.8345 21.192C71.5225 21.192 70.3545 20.912 69.3305 20.352C68.3065 19.792 67.5065 18.992 66.9305 17.952C66.3545 16.912 66.0665 15.696 66.0665 14.304C66.0665 12.912 66.3465 11.696 66.9065 10.656C67.4825 9.616 68.2825 8.816 69.3065 8.256C70.3305 7.696 71.5065 7.416 72.8345 7.416C74.1305 7.416 75.2825 7.688 76.2905 8.232C77.2985 8.776 78.0825 9.552 78.6425 10.56C79.2185 11.568 79.5065 12.744 79.5065 14.088ZM75.3065 13.008C75.3065 12.304 75.0665 11.744 74.5865 11.328C74.1065 10.912 73.5065 10.704 72.7865 10.704C72.0985 10.704 71.5145 10.904 71.0345 11.304C70.5705 11.704 70.2825 12.272 70.1705 13.008H75.3065ZM80.8556 14.28C80.8556 12.904 81.1116 11.696 81.6236 10.656C82.1516 9.616 82.8636 8.816 83.7596 8.256C84.6556 7.696 85.6556 7.416 86.7596 7.416C87.7036 7.416 88.5276 7.608 89.2316 7.992C89.9516 8.376 90.5036 8.88 90.8876 9.504V7.608H94.9916V21H90.8876V19.104C90.4876 19.728 89.9276 20.232 89.2076 20.616C88.5036 21 87.6796 21.192 86.7356 21.192C85.6476 21.192 84.6556 20.912 83.7596 20.352C82.8636 19.776 82.1516 18.968 81.6236 17.928C81.1116 16.872 80.8556 15.656 80.8556 14.28ZM90.8876 14.304C90.8876 13.28 90.5996 12.472 90.0236 11.88C89.4636 11.288 88.7756 10.992 87.9596 10.992C87.1436 10.992 86.4476 11.288 85.8716 11.88C85.3116 12.456 85.0316 13.256 85.0316 14.28C85.0316 15.304 85.3116 16.12 85.8716 16.728C86.4476 17.32 87.1436 17.616 87.9596 17.616C88.7756 17.616 89.4636 17.32 90.0236 16.728C90.5996 16.136 90.8876 15.328 90.8876 14.304ZM106.145 21L102.065 15.384V21H97.9607V3.24H102.065V13.056L106.121 7.608H111.185L105.617 14.328L111.233 21H106.145ZM118.245 21.192C117.077 21.192 116.037 20.992 115.125 20.592C114.213 20.192 113.493 19.648 112.965 18.96C112.437 18.256 112.141 17.472 112.077 16.608H116.133C116.181 17.072 116.397 17.448 116.781 17.736C117.165 18.024 117.637 18.168 118.197 18.168C118.709 18.168 119.101 18.072 119.373 17.88C119.661 17.672 119.805 17.408 119.805 17.088C119.805 16.704 119.605 16.424 119.205 16.248C118.805 16.056 118.157 15.848 117.261 15.624C116.301 15.4 115.501 15.168 114.861 14.928C114.221 14.672 113.669 14.28 113.205 13.752C112.741 13.208 112.509 12.48 112.509 11.568C112.509 10.8 112.717 10.104 113.133 9.48C113.565 8.84 114.189 8.336 115.005 7.968C115.837 7.6 116.821 7.416 117.957 7.416C119.637 7.416 120.957 7.832 121.917 8.664C122.893 9.496 123.453 10.6 123.597 11.976H119.805C119.741 11.512 119.533 11.144 119.181 10.872C118.845 10.6 118.397 10.464 117.837 10.464C117.357 10.464 116.989 10.56 116.733 10.752C116.477 10.928 116.349 11.176 116.349 11.496C116.349 11.88 116.549 12.168 116.949 12.36C117.365 12.552 118.005 12.744 118.869 12.936C119.861 13.192 120.669 13.448 121.293 13.704C121.917 13.944 122.461 14.344 122.925 14.904C123.405 15.448 123.653 16.184 123.669 17.112C123.669 17.896 123.445 18.6 122.997 19.224C122.565 19.832 121.933 20.312 121.101 20.664C120.285 21.016 119.333 21.192 118.245 21.192ZM39.8808 28.288C39.8808 28.776 39.7688 29.224 39.5448 29.632C39.3208 30.032 38.9768 30.356 38.5128 30.604C38.0488 30.852 37.4728 30.976 36.7848 30.976H35.5128V34H33.4608V25.576H36.7848C37.4568 25.576 38.0248 25.692 38.4888 25.924C38.9528 26.156 39.3008 26.476 39.5328 26.884C39.7648 27.292 39.8808 27.76 39.8808 28.288ZM36.6288 29.344C37.0208 29.344 37.3128 29.252 37.5048 29.068C37.6968 28.884 37.7928 28.624 37.7928 28.288C37.7928 27.952 37.6968 27.692 37.5048 27.508C37.3128 27.324 37.0208 27.232 36.6288 27.232H35.5128V29.344H36.6288ZM43.0011 32.416H45.6891V34H40.9491V25.576H43.0011V32.416ZM58.7508 25.576V34H56.6988V28.948L54.8148 34H53.1588L51.2628 28.936V34H49.2108V25.576H51.6348L53.9988 31.408L56.3388 25.576H58.7508ZM64.2104 34.084C63.4184 34.084 62.6904 33.9 62.0264 33.532C61.3704 33.164 60.8464 32.652 60.4544 31.996C60.0704 31.332 59.8784 30.588 59.8784 29.764C59.8784 28.94 60.0704 28.2 60.4544 27.544C60.8464 26.888 61.3704 26.376 62.0264 26.008C62.6904 25.64 63.4184 25.456 64.2104 25.456C65.0024 25.456 65.7264 25.64 66.3824 26.008C67.0464 26.376 67.5664 26.888 67.9424 27.544C68.3264 28.2 68.5184 28.94 68.5184 29.764C68.5184 30.588 68.3264 31.332 67.9424 31.996C67.5584 32.652 67.0384 33.164 66.3824 33.532C65.7264 33.9 65.0024 34.084 64.2104 34.084ZM64.2104 32.212C64.8824 32.212 65.4184 31.988 65.8184 31.54C66.2264 31.092 66.4304 30.5 66.4304 29.764C66.4304 29.02 66.2264 28.428 65.8184 27.988C65.4184 27.54 64.8824 27.316 64.2104 27.316C63.5304 27.316 62.9864 27.536 62.5784 27.976C62.1784 28.416 61.9784 29.012 61.9784 29.764C61.9784 30.508 62.1784 31.104 62.5784 31.552C62.9864 31.992 63.5304 32.212 64.2104 32.212ZM71.676 25.576V30.616C71.676 31.12 71.8 31.508 72.048 31.78C72.296 32.052 72.66 32.188 73.14 32.188C73.62 32.188 73.988 32.052 74.244 31.78C74.5 31.508 74.628 31.12 74.628 30.616V25.576H76.68V30.604C76.68 31.356 76.52 31.992 76.2 32.512C75.88 33.032 75.448 33.424 74.904 33.688C74.368 33.952 73.768 34.084 73.104 34.084C72.44 34.084 71.844 33.956 71.316 33.7C70.796 33.436 70.384 33.044 70.08 32.524C69.776 31.996 69.624 31.356 69.624 30.604V25.576H71.676ZM85.657 34H83.605L80.173 28.804V34H78.121V25.576H80.173L83.605 30.796V25.576H85.657V34ZM93.2044 25.576V27.22H90.9724V34H88.9204V27.22H86.6884V25.576H93.2044ZM99.4782 32.512H96.3342L95.8302 34H93.6822L96.7302 25.576H99.1062L102.154 34H99.9822L99.4782 32.512ZM98.9502 30.928L97.9062 27.844L96.8742 30.928H98.9502ZM105.134 25.576V34H103.082V25.576H105.134ZM114.157 34H112.105L108.673 28.804V34H106.621V25.576H108.673L112.105 30.796V25.576H114.157V34ZM118.692 34.084C118.076 34.084 117.524 33.984 117.036 33.784C116.548 33.584 116.156 33.288 115.86 32.896C115.572 32.504 115.42 32.032 115.404 31.48H117.588C117.62 31.792 117.728 32.032 117.912 32.2C118.096 32.36 118.336 32.44 118.632 32.44C118.936 32.44 119.176 32.372 119.352 32.236C119.528 32.092 119.616 31.896 119.616 31.648C119.616 31.44 119.544 31.268 119.4 31.132C119.264 30.996 119.092 30.884 118.884 30.796C118.684 30.708 118.396 30.608 118.02 30.496C117.476 30.328 117.032 30.16 116.688 29.992C116.344 29.824 116.048 29.576 115.8 29.248C115.552 28.92 115.428 28.492 115.428 27.964C115.428 27.18 115.712 26.568 116.28 26.128C116.848 25.68 117.588 25.456 118.5 25.456C119.428 25.456 120.176 25.68 120.744 26.128C121.312 26.568 121.616 27.184 121.656 27.976H119.436C119.42 27.704 119.32 27.492 119.136 27.34C118.952 27.18 118.716 27.1 118.428 27.1C118.18 27.1 117.98 27.168 117.828 27.304C117.676 27.432 117.6 27.62 117.6 27.868C117.6 28.14 117.728 28.352 117.984 28.504C118.24 28.656 118.64 28.82 119.184 28.996C119.728 29.18 120.168 29.356 120.504 29.524C120.848 29.692 121.144 29.936 121.392 30.256C121.64 30.576 121.764 30.988 121.764 31.492C121.764 31.972 121.64 32.408 121.392 32.8C121.152 33.192 120.8 33.504 120.336 33.736C119.872 33.968 119.324 34.084 118.692 34.084Z" fill="black"/>
</svg>
