<svg width="42" height="32" viewBox="0 0 42 32" fill="none" xmlns="http://www.w3.org/2000/svg">
<path d="M7.43991 14.712C7.98391 14.28 8.23191 14.08 8.18391 14.112C9.75191 12.816 10.9839 11.752 11.8799 10.92C12.7919 10.088 13.5599 9.216 14.1839 8.304C14.8079 7.392 15.1199 6.504 15.1199 5.64C15.1199 4.984 14.9679 4.472 14.6639 4.104C14.3599 3.736 13.9039 3.552 13.2959 3.552C12.6879 3.552 12.2079 3.784 11.8559 4.248C11.5199 4.696 11.3519 5.336 11.3519 6.168H7.39191C7.42391 4.808 7.71191 3.672 8.25591 2.76C8.81591 1.848 9.54391 1.176 10.4399 0.743999C11.3519 0.311999 12.3599 0.0959988 13.4639 0.0959988C15.3679 0.0959988 16.7999 0.583999 17.7599 1.56C18.7359 2.536 19.2239 3.808 19.2239 5.376C19.2239 7.088 18.6399 8.68 17.4719 10.152C16.3039 11.608 14.8159 13.032 13.0079 14.424H19.4879V17.76H7.43991V14.712ZM29.9588 5.208C29.8308 4.616 29.6068 4.176 29.2868 3.888C28.9668 3.584 28.5108 3.432 27.9188 3.432C27.0068 3.432 26.3508 3.832 25.9508 4.632C25.5508 5.416 25.3428 6.664 25.3268 8.376C25.6788 7.816 26.1828 7.376 26.8388 7.056C27.5108 6.736 28.2468 6.576 29.0468 6.576C30.6148 6.576 31.8708 7.072 32.8148 8.064C33.7748 9.056 34.2548 10.44 34.2548 12.216C34.2548 13.384 34.0148 14.408 33.5348 15.288C33.0708 16.168 32.3828 16.856 31.4708 17.352C30.5748 17.848 29.5108 18.096 28.2788 18.096C25.8148 18.096 24.1028 17.328 23.1428 15.792C22.1828 14.24 21.7028 12.016 21.7028 9.12C21.7028 6.08 22.2068 3.824 23.2148 2.352C24.2388 0.863999 25.8708 0.119998 28.1108 0.119998C29.3108 0.119998 30.3188 0.359999 31.1348 0.839999C31.9668 1.304 32.5908 1.92 33.0068 2.688C33.4388 3.456 33.6948 4.296 33.7748 5.208H29.9588ZM28.0628 9.816C27.3748 9.816 26.7988 10.024 26.3348 10.44C25.8868 10.84 25.6628 11.416 25.6628 12.168C25.6628 12.936 25.8708 13.536 26.2868 13.968C26.7188 14.4 27.3268 14.616 28.1108 14.616C28.8148 14.616 29.3668 14.408 29.7668 13.992C30.1828 13.56 30.3908 12.976 30.3908 12.24C30.3908 11.488 30.1908 10.896 29.7908 10.464C29.3908 10.032 28.8148 9.816 28.0628 9.816ZM6.60736 25.288C6.60736 25.776 6.49536 26.224 6.27136 26.632C6.04736 27.032 5.70336 27.356 5.23936 27.604C4.77536 27.852 4.19936 27.976 3.51136 27.976H2.23936V31H0.187359V22.576H3.51136C4.18336 22.576 4.75136 22.692 5.21536 22.924C5.67936 23.156 6.02736 23.476 6.25936 23.884C6.49136 24.292 6.60736 24.76 6.60736 25.288ZM3.35536 26.344C3.74736 26.344 4.03936 26.252 4.23136 26.068C4.42336 25.884 4.51936 25.624 4.51936 25.288C4.51936 24.952 4.42336 24.692 4.23136 24.508C4.03936 24.324 3.74736 24.232 3.35536 24.232H2.23936V26.344H3.35536ZM9.72764 24.22V25.924H12.4756V27.508H9.72764V29.356H12.8356V31H7.67564V22.576H12.8356V24.22H9.72764ZM18.1518 31.084C17.3598 31.084 16.6318 30.9 15.9678 30.532C15.3118 30.164 14.7878 29.652 14.3958 28.996C14.0118 28.332 13.8198 27.588 13.8198 26.764C13.8198 25.94 14.0118 25.2 14.3958 24.544C14.7878 23.888 15.3118 23.376 15.9678 23.008C16.6318 22.64 17.3598 22.456 18.1518 22.456C18.9438 22.456 19.6678 22.64 20.3238 23.008C20.9878 23.376 21.5078 23.888 21.8838 24.544C22.2678 25.2 22.4598 25.94 22.4598 26.764C22.4598 27.588 22.2678 28.332 21.8838 28.996C21.4998 29.652 20.9798 30.164 20.3238 30.532C19.6678 30.9 18.9438 31.084 18.1518 31.084ZM18.1518 29.212C18.8238 29.212 19.3598 28.988 19.7598 28.54C20.1678 28.092 20.3718 27.5 20.3718 26.764C20.3718 26.02 20.1678 25.428 19.7598 24.988C19.3598 24.54 18.8238 24.316 18.1518 24.316C17.4718 24.316 16.9278 24.536 16.5198 24.976C16.1198 25.416 15.9198 26.012 15.9198 26.764C15.9198 27.508 16.1198 28.104 16.5198 28.552C16.9278 28.992 17.4718 29.212 18.1518 29.212ZM30.0214 25.288C30.0214 25.776 29.9094 26.224 29.6854 26.632C29.4614 27.032 29.1174 27.356 28.6534 27.604C28.1894 27.852 27.6134 27.976 26.9254 27.976H25.6534V31H23.6014V22.576H26.9254C27.5974 22.576 28.1654 22.692 28.6294 22.924C29.0934 23.156 29.4414 23.476 29.6734 23.884C29.9054 24.292 30.0214 24.76 30.0214 25.288ZM26.7694 26.344C27.1614 26.344 27.4534 26.252 27.6454 26.068C27.8374 25.884 27.9334 25.624 27.9334 25.288C27.9334 24.952 27.8374 24.692 27.6454 24.508C27.4534 24.324 27.1614 24.232 26.7694 24.232H25.6534V26.344H26.7694ZM33.1417 29.416H35.8297V31H31.0897V22.576H33.1417V29.416ZM38.8605 24.22V25.924H41.6085V27.508H38.8605V29.356H41.9685V31H36.8085V22.576H41.9685V24.22H38.8605Z" fill="black"/>
</svg>
