<svg width="34" height="32" viewBox="0 0 34 32" fill="none" xmlns="http://www.w3.org/2000/svg">
<path d="M10.0549 14.88V11.568L17.6389 0.719999H22.2229V11.328H24.1909V14.88H22.2229V18H18.1189V14.88H10.0549ZM18.4069 5.232L14.3749 11.328H18.4069V5.232ZM7.13994 22.576V24.22H4.90794V31H2.85594V24.22H0.623938V22.576H7.13994ZM12.4658 31L10.7138 27.82H10.2218V31H8.16978V22.576H11.6138C12.2778 22.576 12.8418 22.692 13.3058 22.924C13.7778 23.156 14.1298 23.476 14.3618 23.884C14.5938 24.284 14.7098 24.732 14.7098 25.228C14.7098 25.788 14.5498 26.288 14.2298 26.728C13.9178 27.168 13.4538 27.48 12.8378 27.664L14.7818 31H12.4658ZM10.2218 26.368H11.4938C11.8698 26.368 12.1498 26.276 12.3338 26.092C12.5258 25.908 12.6218 25.648 12.6218 25.312C12.6218 24.992 12.5258 24.74 12.3338 24.556C12.1498 24.372 11.8698 24.28 11.4938 24.28H10.2218V26.368ZM18.0499 22.576V31H15.9979V22.576H18.0499ZM25.957 25.288C25.957 25.776 25.845 26.224 25.621 26.632C25.397 27.032 25.053 27.356 24.589 27.604C24.125 27.852 23.549 27.976 22.861 27.976H21.589V31H19.537V22.576H22.861C23.533 22.576 24.101 22.692 24.565 22.924C25.029 23.156 25.377 23.476 25.609 23.884C25.841 24.292 25.957 24.76 25.957 25.288ZM22.705 26.344C23.097 26.344 23.389 26.252 23.581 26.068C23.773 25.884 23.869 25.624 23.869 25.288C23.869 24.952 23.773 24.692 23.581 24.508C23.389 24.324 23.097 24.232 22.705 24.232H21.589V26.344H22.705ZM30.0733 31.084C29.4573 31.084 28.9053 30.984 28.4173 30.784C27.9293 30.584 27.5373 30.288 27.2413 29.896C26.9533 29.504 26.8013 29.032 26.7853 28.48H28.9693C29.0013 28.792 29.1093 29.032 29.2933 29.2C29.4773 29.36 29.7173 29.44 30.0133 29.44C30.3173 29.44 30.5573 29.372 30.7333 29.236C30.9093 29.092 30.9973 28.896 30.9973 28.648C30.9973 28.44 30.9253 28.268 30.7813 28.132C30.6453 27.996 30.4733 27.884 30.2653 27.796C30.0653 27.708 29.7773 27.608 29.4013 27.496C28.8573 27.328 28.4133 27.16 28.0693 26.992C27.7253 26.824 27.4293 26.576 27.1813 26.248C26.9333 25.92 26.8093 25.492 26.8093 24.964C26.8093 24.18 27.0933 23.568 27.6613 23.128C28.2293 22.68 28.9693 22.456 29.8813 22.456C30.8093 22.456 31.5573 22.68 32.1253 23.128C32.6933 23.568 32.9973 24.184 33.0373 24.976H30.8173C30.8013 24.704 30.7013 24.492 30.5173 24.34C30.3333 24.18 30.0973 24.1 29.8092 24.1C29.5613 24.1 29.3613 24.168 29.2093 24.304C29.0573 24.432 28.9813 24.62 28.9813 24.868C28.9813 25.14 29.1093 25.352 29.3652 25.504C29.6213 25.656 30.0213 25.82 30.5653 25.996C31.1093 26.18 31.5493 26.356 31.8853 26.524C32.2293 26.692 32.5253 26.936 32.7733 27.256C33.0213 27.576 33.1453 27.988 33.1453 28.492C33.1453 28.972 33.0213 29.408 32.7733 29.8C32.5333 30.192 32.1813 30.504 31.7173 30.736C31.2533 30.968 30.7053 31.084 30.0733 31.084Z" fill="black"/>
</svg>
